# xmcd
#
# Track frame offsets:
#	150
#	10397
#	22887
#	37680
#	49385
#	78132
#	89365
#	103380
#	116702
#	129940
#	144507
#	158730
#	171005
#	187130
#	199832
#	214512
#	227592
#	239665
#	253492
#	266455
#	282537
#	295227
#	308017
#	333917
#
# Disc length: 4599
#
# Revision: 1
# Processed by: cddbd v1.5.1PL0 Copyright (c) Steve Scherf et al.
# Submitted via: ExactAudioCopy v0.95a3
# Normalized: r0:TDELIM( - )
#
DISCID=5911f518
DTITLE=Various Artist - Royal Memphis Soul #2
DYEAR=1996
DGENRE=Soul
TTITLE0=Ann Peebles - 99 lbs
TTITLE1=Syl Johnson - The Love You Left Behind
TTITLE2=Al Green - Let's Stay Together
TTITLE3=Veniece - Stepchild
TTITLE4=Al Green - How Can You Mend A Broken Heart?
TTITLE5=Ann Peebles - I Feel Like Breaking Up Somebody's Home
TTITLE6=Al Green - Look What You Done For Me
TTITLE7=George Jackson - Aretha, Sing One For Me
TTITLE8=T-99 - Sweetness Ain't Sweet No More
TTITLE9=Al Green - I'm Still In Love With You
TTITLE10=Phillip Mitchell - LittleThings
TTITLE11=Quiet Elegance - I'm Afraid Of Losing You
TTITLE12=Bobo Mr. Soul - She's My Woman
TTITLE13=Otis Clay - Trying To Live My Life Without You
TTITLE14=Al Green - You Ought To Be With Me
TTITLE15=Joint Venture - When The Battle Is Over
TTITLE16=Ann Peebles - I'm Gonna Tear Your Playhouse Down
TTITLE17=Al Green - Call Me (Come Back Home)
TTITLE18=Otis Clay - I Can't Make It Alone
TTITLE19=Phillip Mitchell - The Same Folks That Put You There
TTITLE20=Darryl Carter - Looking Straight Ahead
TTITLE21=Quiet Elegance - You've Got My Mind Messed Up
TTITLE22=Otis Clay - I Love You, I Need You
TTITLE23=Ann Peebles - I Can't Stand The Rain
EXTD=
EXTT0=
EXTT1=
EXTT2=
EXTT3=
EXTT4=
EXTT5=
EXTT6=
EXTT7=
EXTT8=
EXTT9=
EXTT10=
EXTT11=
EXTT12=
EXTT13=
EXTT14=
EXTT15=
EXTT16=
EXTT17=
EXTT18=
EXTT19=
EXTT20=
EXTT21=
EXTT22=
EXTT23=
PLAYORDER=
